<?xml version="1.0" encoding="iso-8859-1"?>
<!-- Generator: Adobe Illustrator 19.0.0, SVG Export Plug-In . SVG Version: 6.00 Build 0)  -->
<svg version="1.1" id="Layer_1" xmlns="http://www.w3.org/2000/svg" xmlns:xlink="http://www.w3.org/1999/xlink" x="0px" y="0px"
	 viewBox="0 0 451.277 451.277" style="enable-background:new 0 0 451.277 451.277;" xml:space="preserve">
<circle style="fill:#E05B49;" cx="225.638" cy="225.638" r="225.638"/>
<path style="opacity:0.1;enable-background:new    ;" d="M123.105,123.101c-35.682,35.729-35.682,93.554,0,129.283l183.778,183.778
	c59.254-22.884,106.398-70.031,129.281-129.285L252.388,123.101C216.659,87.419,158.834,87.419,123.105,123.101z"/>
<path style="fill:#EBF0F3;" d="M185.062,238.33v-8.909c-11.153-1.142-21.164-5.571-30.024-13.308l8.909-10.617
	c6.833,5.939,13.865,9.485,21.115,10.617v-23.677c-9.197-2.195-15.93-5.075-20.201-8.661c-4.271-3.575-6.406-8.889-6.406-15.93
	c0-7.032,2.453-12.792,7.379-17.261c4.926-4.479,11.332-6.923,19.228-7.33v-6.098h7.806v6.227c8.948,0.645,17.41,3.705,25.386,9.147
	l-7.936,11.233c-5.373-3.824-11.183-6.187-17.45-7.081v22.942h0.368c9.355,2.195,16.228,5.175,20.618,8.909
	c4.4,3.745,6.594,9.177,6.594,16.298c0,7.121-2.522,12.911-7.568,17.39c-5.045,4.469-11.71,6.913-20.013,7.32v8.789H185.062z
	 M176.451,159.552c-2.076,1.827-3.109,4.112-3.109,6.833c0,2.731,0.815,4.877,2.443,6.466c1.619,1.589,4.718,3.119,9.276,4.579
	v-21.115C181.397,156.642,178.527,157.725,176.451,159.552z M202.144,213.064c2.274-1.867,3.417-4.231,3.417-7.081
	c0-2.84-0.894-5.105-2.682-6.773c-1.798-1.659-5.135-3.228-10.011-4.698v21.969C196.771,216.073,199.86,214.941,202.144,213.064z"/>
<path style="fill:#F6C358;" d="M133.452,133.452c-29.984,29.984-29.984,78.599,0,108.584c29.985,29.984,78.599,29.984,108.584,0
	c29.984-29.984,29.984-78.599,0-108.584C212.05,103.467,163.436,103.467,133.452,133.452z M238.812,238.813
	c-28.204,28.205-73.933,28.205-102.138,0c-28.205-28.204-28.204-73.933,0-102.138c28.205-28.205,73.933-28.205,102.138,0
	C267.017,164.879,267.017,210.608,238.812,238.813z"/>
<path style="fill:#FCD462;" d="M252.365,123.122c-35.69-35.689-93.553-35.689-129.243,0c-35.689,35.689-35.689,93.553,0,129.242
	c33.01,33.009,84.976,35.463,120.834,7.411l11.103,11.103c-3.908,5.481-5.876,10.533-3.568,12.84l7.967,7.967l32.229-32.229
	l-7.967-7.966c-2.308-2.308-7.36-0.34-12.841,3.568l-11.104-11.104C287.827,208.097,285.374,156.132,252.365,123.122z
	 M133.452,242.035c-29.984-29.985-29.984-78.599,0-108.584s78.599-29.985,108.584,0c29.984,29.984,29.984,78.599,0,108.584
	C212.051,272.019,163.436,272.02,133.452,242.035z"/>
<path style="fill:#3A556A;" d="M291.686,259.457l-7.479,7.479l66.76,66.76c3.509-5.15,5.154-9.804,2.966-11.992l-35.107-35.107
	L291.686,259.457z"/>
<path style="fill:#64798A;" d="M259.457,291.686l27.141,27.14l35.106,35.107c4.813,4.812,21.546-8.912,29.263-20.236l-66.76-66.76
	L259.457,291.686z"/>
<g>
</g>
<g>
</g>
<g>
</g>
<g>
</g>
<g>
</g>
<g>
</g>
<g>
</g>
<g>
</g>
<g>
</g>
<g>
</g>
<g>
</g>
<g>
</g>
<g>
</g>
<g>
</g>
<g>
</g>
</svg>
